<svg width="1762" height="519" viewBox="0 0 1762 519" fill="none" xmlns="http://www.w3.org/2000/svg">
<path d="M166.161 145.155L165.661 493.655H0L166.161 145.155Z" fill="#FD5F3C"/>
<path d="M185 0L420.14 492.655H185V0Z" fill="#4483FF"/>
<path d="M470.4 124.6L556.4 336.6L522.8 329.8L600.8 124.6H669.6L535.2 432.6L400.8 124.6H470.4ZM747.331 423.8C725.998 423.8 707.865 419.8 692.931 411.8C678.265 403.8 667.065 392.733 659.331 378.6C651.598 364.467 647.731 348.2 647.731 329.8C647.731 312.2 652.265 296.333 661.331 282.2C670.398 268.067 682.531 256.867 697.731 248.6C712.931 240.067 729.865 235.8 748.531 235.8C773.598 235.8 794.131 243.133 810.131 257.8C826.398 272.2 836.931 293.133 841.731 320.6L705.731 363.8L693.331 333.4L791.731 300.2L780.131 305.4C777.998 298.467 774.131 292.467 768.531 287.4C763.198 282.067 755.065 279.4 744.131 279.4C735.865 279.4 728.531 281.4 722.131 285.4C715.998 289.133 711.198 294.6 707.731 301.8C704.531 308.733 702.931 317 702.931 326.6C702.931 337.533 704.931 346.733 708.931 354.2C712.931 361.4 718.398 366.867 725.331 370.6C732.265 374.333 739.998 376.2 748.531 376.2C754.665 376.2 760.531 375.133 766.131 373C771.998 370.867 777.731 368.067 783.331 364.6L808.131 406.2C798.798 411.533 788.665 415.8 777.731 419C767.065 422.2 756.931 423.8 747.331 423.8ZM939.225 422.6C924.825 422.6 911.358 420.067 898.825 415C886.558 409.933 876.158 402.867 867.625 393.8L890.825 363C899.358 370.733 907.225 376.333 914.425 379.8C921.892 383 928.558 384.6 934.425 384.6C938.958 384.6 942.958 384.2 946.425 383.4C950.158 382.333 953.092 380.867 955.225 379C957.358 376.867 958.425 374.2 958.425 371C958.425 366.467 956.558 362.867 952.825 360.2C949.358 357.533 944.825 355.4 939.225 353.8C933.625 351.933 927.625 350.067 921.225 348.2C905.225 343.133 893.625 335.8 886.425 326.2C879.492 316.333 876.025 305.667 876.025 294.2C876.025 285.4 878.292 276.6 882.825 267.8C887.625 258.733 895.092 251.267 905.225 245.4C915.625 239.267 928.958 236.2 945.225 236.2C959.892 236.2 972.292 237.667 982.425 240.6C992.558 243.533 1002.16 248.333 1011.23 255L990.025 287.8C984.958 283.8 979.225 280.467 972.825 277.8C966.692 274.867 960.958 273.267 955.625 273C950.825 272.733 946.692 273.267 943.225 274.6C940.025 275.933 937.492 277.667 935.625 279.8C933.758 281.933 932.825 284.2 932.825 286.6C932.558 291.667 934.425 295.667 938.425 298.6C942.692 301.533 948.025 303.8 954.425 305.4C960.825 307 967.092 308.867 973.225 311C981.758 313.667 989.092 317.267 995.225 321.8C1001.36 326.333 1006.03 331.8 1009.23 338.2C1012.69 344.333 1014.43 351.8 1014.43 360.6C1014.43 371.267 1011.63 381.4 1006.03 391C1000.69 400.333 992.425 407.933 981.225 413.8C970.292 419.667 956.292 422.6 939.225 422.6ZM1077.73 167.4H1133.73V243.4H1176.13V287H1133.73V419H1077.73V287H1050.53V243.4H1077.73V167.4ZM1218.75 244.2H1274.75V419H1218.75V244.2ZM1217.55 182.2C1217.55 173.933 1220.75 167.133 1227.15 161.8C1233.82 156.467 1240.89 153.8 1248.35 153.8C1255.82 153.8 1262.62 156.467 1268.75 161.8C1275.15 167.133 1278.35 173.933 1278.35 182.2C1278.35 190.467 1275.15 197.267 1268.75 202.6C1262.62 207.667 1255.82 210.2 1248.35 210.2C1240.89 210.2 1233.82 207.667 1227.15 202.6C1220.75 197.267 1217.55 190.467 1217.55 182.2ZM1442.03 423.8C1431.63 423.8 1421.36 421.933 1411.23 418.2C1401.36 414.2 1393.09 408.6 1386.43 401.4L1388.03 385V503H1332.43V240.2H1380.43L1388.43 274.2L1384.03 262.2C1393.09 254.467 1403.23 248.067 1414.43 243C1425.63 237.933 1438.56 235.4 1453.23 235.4C1469.49 235.4 1484.03 239.267 1496.83 247C1509.63 254.467 1519.63 265.4 1526.83 279.8C1534.29 293.933 1538.03 311 1538.03 331C1538.03 350.733 1533.89 367.533 1525.63 381.4C1517.36 395.267 1506.03 405.8 1491.63 413C1477.23 420.2 1460.69 423.8 1442.03 423.8ZM1430.83 379.8C1439.89 379.8 1448.16 377.8 1455.63 373.8C1463.36 369.8 1469.49 364.2 1474.03 357C1478.83 349.533 1481.23 341.133 1481.23 331.8C1481.23 321.933 1479.09 313.4 1474.83 306.2C1470.83 298.733 1465.23 293 1458.03 289C1451.09 284.733 1443.36 282.6 1434.83 282.6C1427.36 282.6 1420.69 283.667 1414.83 285.8C1409.23 287.667 1404.16 290.6 1399.63 294.6C1395.36 298.333 1391.63 303.133 1388.43 309V351.8C1390.56 357.4 1393.63 362.333 1397.63 366.6C1401.63 370.867 1406.43 374.2 1412.03 376.6C1417.89 378.733 1424.16 379.8 1430.83 379.8ZM1590.18 503L1706.58 244.2H1756.98L1644.18 503H1590.18ZM1636.98 419.8L1551.38 244.2H1614.18L1680.18 391.8L1636.98 419.8Z" fill="#E4E4E4"/>
</svg>
